<svg xmlns="http://www.w3.org/2000/svg" viewBox="0 0 64 64" role="img" aria-label="Bible Board">
  <rect width="64" height="64" rx="14" fill="#0D9488" />
  <path
    d="M20 16.5C20 14.567 21.567 13 23.5 13H42.5C44.433 13 46 14.567 46 16.5V47.5C46 49.433 44.433 51 42.5 51H23.5C21.567 51 20 49.433 20 47.5V16.5Z"
    fill="#F0FDFA"
  />
  <path
    d="M26 19H39C40.105 19 41 19.895 41 21V43C41 44.105 40.105 45 39 45H26C24.895 45 24 44.105 24 43V21C24 19.895 24.895 19 26 19Z"
    fill="#14B8A6"
  />
  <path
    d="M31.25 24.5H33.75V30.25H39.5V32.75H33.75V38.5H31.25V32.75H25.5V30.25H31.25V24.5Z"
    fill="#F97316"
  />
</svg>
